{"glyphs":{"0":{"ha":1506,"x_min":0,"x_max":0,"o":"m 950 978 l 556 978 b 68 491 287 978 68 759 b 556 3 68 222 287 3 l 950 3 b 1437 491 1219 3 1437 222 b 950 978 1437 759 1219 978 z m 950 245 l 556 245 b 310 491 420 245 310 355 b 556 736 310 626 420 736 l 950 736 b 1195 491 1085 736 1195 626 b 950 245 1195 355 1085 245 z "},"1":{"ha":596,"x_min":0,"x_max":0,"o":"m 225 978 l 40 794 l 211 623 l 270 681 l 270 -4 l 512 -4 l 512 978 z "},"2":{"ha":1419,"x_min":0,"x_max":0,"o":"m 319 304 b 378 364 319 337 345 364 l 1035 364 b 1342 671 1204 364 1342 501 b 1035 978 1342 840 1204 978 l 76 978 l 76 736 l 1035 736 b 1100 671 1071 736 1100 707 b 1035 605 1100 635 1071 605 l 378 605 b 77 304 212 605 77 470 b 378 3 77 138 212 3 l 1339 3 l 1339 245 l 378 245 b 319 304 345 245 319 272 z "},"3":{"ha":1413,"x_min":0,"x_max":0,"o":"m 1335 575 b 856 973 1293 801 1094 973 l 82 973 l 82 731 l 856 731 b 1070 605 947 731 1028 680 b 1069 605 1070 605 1069 605 l 82 605 l 82 364 l 1069 364 b 1070 364 1069 364 1070 364 b 856 238 1028 289 947 238 l 82 238 l 82 -4 l 856 -4 b 1344 485 1125 -4 1344 215 b 1335 575 1344 515 1341 546 z "},"4":{"ha":1365,"x_min":0,"x_max":0,"o":"m 1154 361 l 1154 575 l 912 575 l 912 361 l 429 361 l 723 978 l 455 978 l 46 119 l 912 119 l 912 -4 l 1154 -4 l 1154 119 l 1304 119 l 1304 361 z "},"5":{"ha":1425,"x_min":0,"x_max":0,"o":"m 1348 736 l 1348 978 l 82 978 l 82 364 l 1046 364 b 1105 304 1079 364 1105 337 b 1046 245 1105 272 1079 245 l 85 245 l 85 3 l 1046 3 b 1347 304 1212 3 1347 138 b 1046 605 1347 470 1212 605 l 324 605 l 324 736 z "},"6":{"ha":1390,"x_min":0,"x_max":0,"o":"m 1023 605 l 532 605 l 829 978 l 520 978 l 225 608 b 135 500 196 571 165 536 b 63 305 90 447 63 380 b 367 3 62 139 201 3 l 1026 3 b 1328 306 1193 3 1329 139 b 1023 605 1327 472 1189 605 z m 1026 245 l 364 245 b 304 304 331 245 304 272 b 308 323 304 311 306 317 l 333 355 b 364 364 342 360 352 364 l 1026 364 b 1086 304 1059 364 1086 337 b 1026 245 1086 272 1059 245 z "},"7":{"ha":1021,"x_min":0,"x_max":0,"o":"m 54 971 l 54 729 l 628 729 l 350 -4 l 609 -4 l 978 971 z "},"8":{"ha":1418,"x_min":0,"x_max":0,"o":"m 1342 684 b 1047 978 1342 846 1210 978 l 371 978 b 76 684 208 978 76 846 b 145 491 76 611 102 543 b 76 297 102 438 76 370 b 371 3 76 135 208 3 l 1047 3 b 1342 297 1210 3 1342 135 b 1273 491 1342 370 1316 438 b 1342 684 1316 543 1342 611 z m 1047 736 b 1100 684 1076 736 1100 713 b 1034 618 1100 647 1070 618 l 384 618 b 318 684 348 618 318 647 b 371 736 318 713 342 736 z m 371 245 b 318 297 342 245 318 268 b 384 364 318 334 348 364 l 1034 364 b 1100 297 1070 364 1100 334 b 1047 245 1100 269 1076 245 z "},"9":{"ha":1390,"x_min":0,"x_max":0,"o":"m 1023 978 l 364 978 b 63 675 197 978 62 842 b 367 376 63 509 201 376 l 858 376 l 562 3 l 871 3 l 1165 373 b 1255 481 1194 410 1225 445 b 1328 676 1300 534 1327 601 b 1023 978 1328 842 1189 978 z m 1083 658 l 1057 626 b 1026 618 1048 621 1038 618 l 364 618 b 304 677 331 618 304 644 b 364 736 304 709 331 736 l 1026 736 b 1086 677 1059 736 1086 709 b 1083 658 1086 670 1085 664 z "},"\u0000":{"ha":0,"x_min":0,"x_max":0,"o":""},"\n":{"ha":0,"x_min":0,"x_max":0,"o":""},"\r":{"ha":0,"x_min":0,"x_max":0,"o":""}," ":{"ha":694,"x_min":0,"x_max":0,"o":""},"A":{"ha":1393,"x_min":0,"x_max":0,"o":"m 920 976 l 472 976 b 67 571 248 976 67 794 l 67 1 l 309 1 l 309 244 l 1083 244 l 1083 1 l 1325 1 l 1325 571 b 920 976 1325 794 1143 976 z m 309 486 l 309 571 b 472 734 309 661 382 734 l 920 734 b 1083 571 1010 734 1083 661 l 1083 486 z "},"À":{"ha":1393,"x_min":0,"x_max":0,"o":"m 920 976 l 472 976 b 67 571 248 976 67 794 l 67 1 l 309 1 l 309 244 l 1083 244 l 1083 1 l 1325 1 l 1325 571 b 920 976 1325 794 1143 976 z m 309 486 l 309 571 b 472 734 309 661 382 734 l 920 734 b 1083 571 1010 734 1083 661 l 1083 486 z "},"Á":{"ha":1393,"x_min":0,"x_max":0,"o":"m 920 976 l 472 976 b 67 571 248 976 67 794 l 67 1 l 309 1 l 309 244 l 1083 244 l 1083 1 l 1325 1 l 1325 571 b 920 976 1325 794 1143 976 z m 309 486 l 309 571 b 472 734 309 661 382 734 l 920 734 b 1083 571 1010 734 1083 661 l 1083 486 z "},"Â":{"ha":1393,"x_min":0,"x_max":0,"o":"m 920 976 l 472 976 b 67 571 248 976 67 794 l 67 1 l 309 1 l 309 244 l 1083 244 l 1083 1 l 1325 1 l 1325 571 b 920 976 1325 794 1143 976 z m 309 486 l 309 571 b 472 734 309 661 382 734 l 920 734 b 1083 571 1010 734 1083 661 l 1083 486 z "},"Ã":{"ha":1393,"x_min":0,"x_max":0,"o":"m 920 976 l 472 976 b 67 571 248 976 67 794 l 67 1 l 309 1 l 309 244 l 1083 244 l 1083 1 l 1325 1 l 1325 571 b 920 976 1325 794 1143 976 z m 309 486 l 309 571 b 472 734 309 661 382 734 l 920 734 b 1083 571 1010 734 1083 661 l 1083 486 z "},"Ä":{"ha":1393,"x_min":0,"x_max":0,"o":"m 920 976 l 472 976 b 67 571 248 976 67 794 l 67 1 l 309 1 l 309 244 l 1083 244 l 1083 1 l 1325 1 l 1325 571 b 920 976 1325 794 1143 976 z m 309 486 l 309 571 b 472 734 309 661 382 734 l 920 734 b 1083 571 1010 734 1083 661 l 1083 486 z "},"Å":{"ha":1393,"x_min":0,"x_max":0,"o":"m 920 976 l 472 976 b 67 571 248 976 67 794 l 67 1 l 309 1 l 309 244 l 1083 244 l 1083 1 l 1325 1 l 1325 571 b 920 976 1325 794 1143 976 z m 309 486 l 309 571 b 472 734 309 661 382 734 l 920 734 b 1083 571 1010 734 1083 661 l 1083 486 z "},"B":{"ha":1404,"x_min":0,"x_max":0,"o":"m 1345 673 b 1041 976 1345 840 1208 976 l 83 975 l 83 0 l 325 0 l 325 0 l 1040 1 b 1345 306 1208 1 1345 138 b 1283 490 1345 375 1322 439 b 1345 673 1322 541 1345 604 z m 1041 734 b 1103 673 1075 734 1103 707 b 1041 611 1103 639 1075 611 b 1040 611 1041 611 1040 611 l 325 610 l 325 733 l 1041 734 z m 1040 243 l 325 242 l 325 368 l 1040 369 b 1103 306 1074 369 1103 341 b 1040 243 1103 272 1074 243 z "},"C":{"ha":1349,"x_min":0,"x_max":0,"o":"m 527 735 l 1301 735 l 1301 977 l 527 977 b 39 489 258 977 39 758 b 527 1 39 220 258 1 l 1301 1 l 1301 243 l 527 243 b 281 489 391 243 281 354 b 527 735 281 625 391 735 z "},"Ç":{"ha":1349,"x_min":0,"x_max":0,"o":"m 527 735 l 1301 735 l 1301 977 l 527 977 b 39 489 258 977 39 758 b 527 1 39 220 258 1 l 1301 1 l 1301 243 l 527 243 b 281 489 391 243 281 354 b 527 735 281 625 391 735 z "},"D":{"ha":1504,"x_min":0,"x_max":0,"o":"m 977 977 l 82 977 l 82 1 l 977 1 b 1465 489 1246 1 1465 220 b 977 977 1465 758 1246 977 z m 977 243 l 324 243 l 324 735 l 977 735 b 1223 489 1112 735 1223 625 b 977 243 1223 354 1112 243 z "},"E":{"ha":1429,"x_min":0,"x_max":0,"o":"m 342 734 l 1345 734 l 1345 976 l 342 976 b 83 718 199 976 83 860 l 83 258 b 342 0 83 116 199 0 l 1345 0 l 1345 242 l 342 242 b 325 258 333 242 325 249 l 325 367 l 1345 367 l 1345 609 l 325 609 l 325 718 b 342 734 325 727 333 734 z "},"È":{"ha":1429,"x_min":0,"x_max":0,"o":"m 342 734 l 1345 734 l 1345 976 l 342 976 b 83 718 199 976 83 860 l 83 258 b 342 0 83 116 199 0 l 1345 0 l 1345 242 l 342 242 b 325 258 333 242 325 249 l 325 367 l 1345 367 l 1345 609 l 325 609 l 325 718 b 342 734 325 727 333 734 z "},"É":{"ha":1429,"x_min":0,"x_max":0,"o":"m 342 734 l 1345 734 l 1345 976 l 342 976 b 83 718 199 976 83 860 l 83 258 b 342 0 83 116 199 0 l 1345 0 l 1345 242 l 342 242 b 325 258 333 242 325 249 l 325 367 l 1345 367 l 1345 609 l 325 609 l 325 718 b 342 734 325 727 333 734 z "},"Ê":{"ha":1429,"x_min":0,"x_max":0,"o":"m 342 734 l 1345 734 l 1345 976 l 342 976 b 83 718 199 976 83 860 l 83 258 b 342 0 83 116 199 0 l 1345 0 l 1345 242 l 342 242 b 325 258 333 242 325 249 l 325 367 l 1345 367 l 1345 609 l 325 609 l 325 718 b 342 734 325 727 333 734 z "},"Ë":{"ha":1429,"x_min":0,"x_max":0,"o":"m 342 734 l 1345 734 l 1345 976 l 342 976 b 83 718 199 976 83 860 l 83 258 b 342 0 83 116 199 0 l 1345 0 l 1345 242 l 342 242 b 325 258 333 242 325 249 l 325 367 l 1345 367 l 1345 609 l 325 609 l 325 718 b 342 734 325 727 333 734 z "},"F":{"ha":1428,"x_min":0,"x_max":0,"o":"m 342 733 l 1344 733 l 1344 975 l 342 975 b 83 717 199 975 83 859 l 83 0 l 325 0 l 325 367 l 1344 367 l 1344 609 l 325 609 l 325 717 b 342 733 325 726 333 733 z "},"G":{"ha":1383,"x_min":0,"x_max":0,"o":"m 1302 657 l 1302 977 l 527 977 b 39 489 258 977 39 758 b 527 1 39 220 258 1 l 1302 1 l 1302 578 l 787 578 l 787 336 l 1060 336 l 1060 243 l 527 243 b 281 489 391 243 281 354 b 527 735 281 625 391 735 l 1060 735 l 1060 657 z "},"H":{"ha":1429,"x_min":0,"x_max":0,"o":"m 1104 978 l 1104 579 l 325 579 l 325 978 l 83 978 l 83 1 l 325 1 l 325 337 l 1104 337 l 1104 1 l 1346 1 l 1346 978 z "},"I":{"ha":410,"x_min":0,"x_max":0,"o":"m 325 1 l 325 978 l 83 978 l 83 1 z "},"Ì":{"ha":410,"x_min":0,"x_max":0,"o":"m 325 1 l 325 978 l 83 978 l 83 1 z "},"Í":{"ha":410,"x_min":0,"x_max":0,"o":"m 325 1 l 325 978 l 83 978 l 83 1 z "},"Î":{"ha":410,"x_min":0,"x_max":0,"o":"m 325 1 l 325 978 l 83 978 l 83 1 z "},"Ï":{"ha":410,"x_min":0,"x_max":0,"o":"m 325 1 l 325 978 l 83 978 l 83 1 z "},"J":{"ha":707,"x_min":0,"x_max":0,"o":"m 640 405 l 640 975 l 398 975 l 398 405 b 235 242 398 315 325 242 l 15 242 l 15 0 l 235 0 b 640 405 458 0 640 182 z "},"K":{"ha":1350,"x_min":0,"x_max":0,"o":"m 904 500 l 1343 978 l 1014 978 l 340 243 l 324 243 l 324 978 l 83 978 l 83 1 l 447 1 l 739 321 l 1022 1 l 1346 1 z "},"L":{"ha":907,"x_min":0,"x_max":0,"o":"m 891 242 l 325 242 l 325 977 l 83 977 l 83 0 l 891 0 z "},"M":{"ha":1851,"x_min":0,"x_max":0,"o":"m 1497 984 l 925 183 l 354 984 l 83 984 l 83 0 l 325 0 l 325 607 l 753 7 l 1096 7 l 1525 607 l 1525 0 l 1767 0 l 1767 984 z "},"N":{"ha":1431,"x_min":0,"x_max":0,"o":"m 1347 4 l 1347 978 l 1105 978 l 1105 235 l 328 978 l 83 978 l 83 1 l 325 1 l 325 645 l 999 1 l 1349 1 z "},"Ñ":{"ha":1431,"x_min":0,"x_max":0,"o":"m 1347 4 l 1347 978 l 1105 978 l 1105 235 l 328 978 l 83 978 l 83 1 l 325 1 l 325 645 l 999 1 l 1349 1 z "},"O":{"ha":1388,"x_min":0,"x_max":0,"o":"m 1008 976 l 380 976 b 61 658 204 976 61 833 l 61 320 b 380 1 61 144 204 1 l 1008 1 b 1326 320 1183 1 1326 144 l 1326 658 b 1008 976 1326 833 1183 976 z m 1084 320 b 1008 243 1084 277 1050 243 l 380 243 b 303 320 337 243 303 277 l 303 658 b 380 734 303 700 337 734 l 1008 734 b 1084 658 1050 734 1084 700 z "},"Ò":{"ha":1388,"x_min":0,"x_max":0,"o":"m 1008 976 l 380 976 b 61 658 204 976 61 833 l 61 320 b 380 1 61 144 204 1 l 1008 1 b 1326 320 1183 1 1326 144 l 1326 658 b 1008 976 1326 833 1183 976 z m 1084 320 b 1008 243 1084 277 1050 243 l 380 243 b 303 320 337 243 303 277 l 303 658 b 380 734 303 700 337 734 l 1008 734 b 1084 658 1050 734 1084 700 z "},"Ó":{"ha":1388,"x_min":0,"x_max":0,"o":"m 1008 976 l 380 976 b 61 658 204 976 61 833 l 61 320 b 380 1 61 144 204 1 l 1008 1 b 1326 320 1183 1 1326 144 l 1326 658 b 1008 976 1326 833 1183 976 z m 1084 320 b 1008 243 1084 277 1050 243 l 380 243 b 303 320 337 243 303 277 l 303 658 b 380 734 303 700 337 734 l 1008 734 b 1084 658 1050 734 1084 700 z "},"Ô":{"ha":1388,"x_min":0,"x_max":0,"o":"m 1008 976 l 380 976 b 61 658 204 976 61 833 l 61 320 b 380 1 61 144 204 1 l 1008 1 b 1326 320 1183 1 1326 144 l 1326 658 b 1008 976 1326 833 1183 976 z m 1084 320 b 1008 243 1084 277 1050 243 l 380 243 b 303 320 337 243 303 277 l 303 658 b 380 734 303 700 337 734 l 1008 734 b 1084 658 1050 734 1084 700 z "},"Õ":{"ha":1388,"x_min":0,"x_max":0,"o":"m 1008 976 l 380 976 b 61 658 204 976 61 833 l 61 320 b 380 1 61 144 204 1 l 1008 1 b 1326 320 1183 1 1326 144 l 1326 658 b 1008 976 1326 833 1183 976 z m 1084 320 b 1008 243 1084 277 1050 243 l 380 243 b 303 320 337 243 303 277 l 303 658 b 380 734 303 700 337 734 l 1008 734 b 1084 658 1050 734 1084 700 z "},"Ö":{"ha":1388,"x_min":0,"x_max":0,"o":"m 1008 976 l 380 976 b 61 658 204 976 61 833 l 61 320 b 380 1 61 144 204 1 l 1008 1 b 1326 320 1183 1 1326 144 l 1326 658 b 1008 976 1326 833 1183 976 z m 1084 320 b 1008 243 1084 277 1050 243 l 380 243 b 303 320 337 243 303 277 l 303 658 b 380 734 303 700 337 734 l 1008 734 b 1084 658 1050 734 1084 700 z "},"Ø":{"ha":1388,"x_min":0,"x_max":0,"o":"m 1008 976 l 380 976 b 61 658 204 976 61 833 l 61 320 b 380 1 61 144 204 1 l 1008 1 b 1326 320 1183 1 1326 144 l 1326 658 b 1008 976 1326 833 1183 976 z m 1084 320 b 1008 243 1084 277 1050 243 l 380 243 b 303 320 337 243 303 277 l 303 658 b 380 734 303 700 337 734 l 1008 734 b 1084 658 1050 734 1084 700 z "},"P":{"ha":1371,"x_min":0,"x_max":0,"o":"m 1039 977 l 82 976 l 82 1 l 324 1 l 324 369 l 1040 370 b 1343 674 1207 370 1343 506 b 1039 977 1343 841 1207 977 z m 324 611 l 324 734 l 1040 735 b 1101 674 1074 735 1101 708 b 1039 612 1101 640 1074 612 z "},"Q":{"ha":1379,"x_min":0,"x_max":0,"o":"m 375 976 b 57 658 200 976 57 833 l 57 367 b 375 49 57 192 200 49 l 756 49 l 783 1 l 1062 1 l 1034 50 b 1322 367 1196 66 1322 202 l 1322 658 b 1004 976 1322 833 1179 976 z m 1004 291 l 897 291 l 805 451 l 526 451 l 618 291 l 375 291 b 299 367 333 291 299 325 l 299 658 b 375 734 299 700 333 734 l 1004 734 b 1080 658 1046 734 1080 700 l 1080 367 b 1004 291 1080 325 1046 291 z "},"R":{"ha":1386,"x_min":0,"x_max":0,"o":"m 1343 674 b 1039 977 1343 841 1207 977 l 82 976 l 82 1 l 324 1 l 324 369 l 854 370 l 1064 1 l 1343 1 l 1126 383 b 1343 674 1251 420 1343 536 z m 1040 735 b 1101 674 1074 735 1101 708 b 1039 612 1101 640 1074 612 l 324 611 l 324 734 z "},"S":{"ha":1375,"x_min":0,"x_max":0,"o":"m 1017 579 l 357 579 b 298 638 324 579 298 605 b 369 709 298 677 330 709 l 1317 709 l 1317 951 l 369 951 b 56 638 196 951 56 811 b 357 337 56 472 191 337 l 1017 337 b 1076 278 1049 337 1076 310 b 1017 218 1076 245 1049 218 l 56 218 l 56 -24 l 1017 -24 b 1318 278 1183 -24 1318 112 b 1017 579 1318 444 1183 579 z "},"T":{"ha":1292,"x_min":0,"x_max":0,"o":"m 1276 974 l 15 974 l 15 732 l 524 732 l 524 0 l 766 0 l 766 732 l 1276 732 z "},"U":{"ha":1414,"x_min":0,"x_max":0,"o":"m 1100 953 l 1100 305 b 1013 218 1100 257 1061 218 l 400 218 b 313 305 352 218 313 257 l 313 953 l 71 953 l 71 305 b 400 -24 71 124 218 -24 l 1013 -24 b 1342 305 1194 -24 1342 124 l 1342 953 z "},"Ù":{"ha":1414,"x_min":0,"x_max":0,"o":"m 1100 953 l 1100 305 b 1013 218 1100 257 1061 218 l 400 218 b 313 305 352 218 313 257 l 313 953 l 71 953 l 71 305 b 400 -24 71 124 218 -24 l 1013 -24 b 1342 305 1194 -24 1342 124 l 1342 953 z "},"Ú":{"ha":1414,"x_min":0,"x_max":0,"o":"m 1100 953 l 1100 305 b 1013 218 1100 257 1061 218 l 400 218 b 313 305 352 218 313 257 l 313 953 l 71 953 l 71 305 b 400 -24 71 124 218 -24 l 1013 -24 b 1342 305 1194 -24 1342 124 l 1342 953 z "},"Û":{"ha":1414,"x_min":0,"x_max":0,"o":"m 1100 953 l 1100 305 b 1013 218 1100 257 1061 218 l 400 218 b 313 305 352 218 313 257 l 313 953 l 71 953 l 71 305 b 400 -24 71 124 218 -24 l 1013 -24 b 1342 305 1194 -24 1342 124 l 1342 953 z "},"Ü":{"ha":1414,"x_min":0,"x_max":0,"o":"m 1100 953 l 1100 305 b 1013 218 1100 257 1061 218 l 400 218 b 313 305 352 218 313 257 l 313 953 l 71 953 l 71 305 b 400 -24 71 124 218 -24 l 1013 -24 b 1342 305 1194 -24 1342 124 l 1342 953 z "},"V":{"ha":1401,"x_min":0,"x_max":0,"o":"m 1124 952 l 707 218 l 278 952 l -3 952 l 569 -24 l 848 -24 l 1402 952 z "},"W":{"ha":1942,"x_min":0,"x_max":0,"o":"m 1665 952 l 1248 218 l 1115 446 l 1402 952 l 1124 952 l 974 687 l 819 952 l 538 952 l 836 444 l 707 218 l 278 952 l -3 952 l 569 -24 l 848 -24 l 977 203 l 1110 -24 l 1389 -24 l 1943 952 z "},"X":{"ha":1292,"x_min":0,"x_max":0,"o":"m 1293 953 l 960 953 l 646 622 l 332 953 l -1 953 l 479 446 l 34 -24 l 367 -24 l 646 270 l 924 -24 l 1257 -24 l 812 446 z "},"Y":{"ha":1275,"x_min":0,"x_max":0,"o":"m 1285 977 l 951 977 l 637 646 l 324 977 l -10 977 l 516 424 l 516 424 l 516 0 l 758 0 l 758 424 l 759 424 z "},"Ý":{"ha":1275,"x_min":0,"x_max":0,"o":"m 1285 977 l 951 977 l 637 646 l 324 977 l -10 977 l 516 424 l 516 424 l 516 0 l 758 0 l 758 424 l 759 424 z "},"Ÿ":{"ha":1275,"x_min":0,"x_max":0,"o":"m 1285 977 l 951 977 l 637 646 l 324 977 l -10 977 l 516 424 l 516 424 l 516 0 l 758 0 l 758 424 l 759 424 z "},"Z":{"ha":1222,"x_min":0,"x_max":0,"o":"m 1170 974 l 803 974 l 803 975 l 53 975 l 53 733 l 750 733 l 53 257 l 53 0 l 106 0 l 106 0 l 1170 0 l 1170 242 l 460 242 l 1170 728 z "},"a":{"ha":1393,"x_min":0,"x_max":0,"o":"m 920 975 l 472 975 b 67 570 248 975 67 793 l 67 0 l 309 0 l 309 243 l 1083 243 l 1083 0 l 1325 0 l 1325 570 b 920 975 1325 793 1143 975 z m 309 485 l 309 570 b 472 733 309 660 382 733 l 920 733 b 1083 570 1010 733 1083 660 l 1083 485 z "},"à":{"ha":1393,"x_min":0,"x_max":0,"o":"m 920 975 l 472 975 b 67 570 248 975 67 793 l 67 0 l 309 0 l 309 243 l 1083 243 l 1083 0 l 1325 0 l 1325 570 b 920 975 1325 793 1143 975 z m 309 485 l 309 570 b 472 733 309 660 382 733 l 920 733 b 1083 570 1010 733 1083 660 l 1083 485 z "},"á":{"ha":1393,"x_min":0,"x_max":0,"o":"m 920 975 l 472 975 b 67 570 248 975 67 793 l 67 0 l 309 0 l 309 243 l 1083 243 l 1083 0 l 1325 0 l 1325 570 b 920 975 1325 793 1143 975 z m 309 485 l 309 570 b 472 733 309 660 382 733 l 920 733 b 1083 570 1010 733 1083 660 l 1083 485 z "},"â":{"ha":1393,"x_min":0,"x_max":0,"o":"m 920 975 l 472 975 b 67 570 248 975 67 793 l 67 0 l 309 0 l 309 243 l 1083 243 l 1083 0 l 1325 0 l 1325 570 b 920 975 1325 793 1143 975 z m 309 485 l 309 570 b 472 733 309 660 382 733 l 920 733 b 1083 570 1010 733 1083 660 l 1083 485 z "},"ã":{"ha":1393,"x_min":0,"x_max":0,"o":"m 920 975 l 472 975 b 67 570 248 975 67 793 l 67 0 l 309 0 l 309 243 l 1083 243 l 1083 0 l 1325 0 l 1325 570 b 920 975 1325 793 1143 975 z m 309 485 l 309 570 b 472 733 309 660 382 733 l 920 733 b 1083 570 1010 733 1083 660 l 1083 485 z "},"ä":{"ha":1393,"x_min":0,"x_max":0,"o":"m 920 975 l 472 975 b 67 570 248 975 67 793 l 67 0 l 309 0 l 309 243 l 1083 243 l 1083 0 l 1325 0 l 1325 570 b 920 975 1325 793 1143 975 z m 309 485 l 309 570 b 472 733 309 660 382 733 l 920 733 b 1083 570 1010 733 1083 660 l 1083 485 z "},"å":{"ha":1393,"x_min":0,"x_max":0,"o":"m 920 975 l 472 975 b 67 570 248 975 67 793 l 67 0 l 309 0 l 309 243 l 1083 243 l 1083 0 l 1325 0 l 1325 570 b 920 975 1325 793 1143 975 z m 309 485 l 309 570 b 472 733 309 660 382 733 l 920 733 b 1083 570 1010 733 1083 660 l 1083 485 z "},"b":{"ha":1404,"x_min":0,"x_max":0,"o":"m 1283 489 b 1345 673 1322 540 1345 604 b 1041 976 1345 840 1208 976 l 83 975 l 83 0 l 325 0 l 325 0 l 1040 1 b 1345 306 1208 1 1345 138 b 1283 489 1345 375 1322 438 z m 1041 734 b 1103 673 1075 734 1103 707 b 1041 611 1103 639 1075 611 b 1040 611 1041 611 1040 611 l 325 610 l 325 733 z m 1040 243 l 325 242 l 325 368 l 1040 369 b 1103 306 1074 369 1103 341 b 1040 243 1103 271 1074 243 z "},"c":{"ha":1350,"x_min":0,"x_max":0,"o":"m 527 734 l 1301 734 l 1301 976 l 527 976 b 39 488 258 976 39 757 b 527 0 39 219 258 0 l 1301 0 l 1301 242 l 527 242 b 281 488 391 242 281 352 b 527 734 281 624 391 734 z "},"ç":{"ha":1350,"x_min":0,"x_max":0,"o":"m 527 734 l 1301 734 l 1301 976 l 527 976 b 39 488 258 976 39 757 b 527 0 39 219 258 0 l 1301 0 l 1301 242 l 527 242 b 281 488 391 242 281 352 b 527 734 281 624 391 734 z "},"d":{"ha":1506,"x_min":0,"x_max":0,"o":"m 978 976 l 83 976 l 83 0 l 978 0 b 1466 488 1247 0 1466 219 b 978 976 1466 757 1247 976 z m 978 242 l 325 242 l 325 734 l 978 734 b 1224 488 1114 734 1224 624 b 978 242 1224 352 1114 242 z "},"e":{"ha":1429,"x_min":0,"x_max":0,"o":"m 342 734 l 1345 734 l 1345 976 l 342 976 b 83 718 199 976 83 860 l 83 258 b 342 0 83 116 199 0 l 1345 0 l 1345 242 l 342 242 b 325 258 333 242 325 249 l 325 367 l 1345 367 l 1345 609 l 325 609 l 325 718 b 342 734 325 727 333 734 z "},"è":{"ha":1429,"x_min":0,"x_max":0,"o":"m 342 734 l 1345 734 l 1345 976 l 342 976 b 83 718 199 976 83 860 l 83 258 b 342 0 83 116 199 0 l 1345 0 l 1345 242 l 342 242 b 325 258 333 242 325 249 l 325 367 l 1345 367 l 1345 609 l 325 609 l 325 718 b 342 734 325 727 333 734 z "},"é":{"ha":1429,"x_min":0,"x_max":0,"o":"m 342 734 l 1345 734 l 1345 976 l 342 976 b 83 718 199 976 83 860 l 83 258 b 342 0 83 116 199 0 l 1345 0 l 1345 242 l 342 242 b 325 258 333 242 325 249 l 325 367 l 1345 367 l 1345 609 l 325 609 l 325 718 b 342 734 325 727 333 734 z "},"ê":{"ha":1429,"x_min":0,"x_max":0,"o":"m 342 734 l 1345 734 l 1345 976 l 342 976 b 83 718 199 976 83 860 l 83 258 b 342 0 83 116 199 0 l 1345 0 l 1345 242 l 342 242 b 325 258 333 242 325 249 l 325 367 l 1345 367 l 1345 609 l 325 609 l 325 718 b 342 734 325 727 333 734 z "},"ë":{"ha":1429,"x_min":0,"x_max":0,"o":"m 342 734 l 1345 734 l 1345 976 l 342 976 b 83 718 199 976 83 860 l 83 258 b 342 0 83 116 199 0 l 1345 0 l 1345 242 l 342 242 b 325 258 333 242 325 249 l 325 367 l 1345 367 l 1345 609 l 325 609 l 325 718 b 342 734 325 727 333 734 z "},"f":{"ha":1428,"x_min":0,"x_max":0,"o":"m 342 733 l 1344 733 l 1344 975 l 342 975 b 83 717 199 975 83 859 l 83 0 l 325 0 l 325 367 l 1344 367 l 1344 609 l 325 609 l 325 717 b 342 733 325 726 333 733 z "},"g":{"ha":1385,"x_min":0,"x_max":0,"o":"m 1302 656 l 1302 976 l 527 976 b 39 488 258 976 39 757 b 527 0 39 219 258 0 l 1302 0 l 1302 577 l 787 577 l 787 335 l 1060 335 l 1060 242 l 527 242 b 281 488 391 242 281 352 b 527 734 281 624 391 734 l 1060 734 l 1060 656 z "},"h":{"ha":1429,"x_min":0,"x_max":0,"o":"m 1104 977 l 1104 578 l 325 578 l 325 977 l 83 977 l 83 0 l 325 0 l 325 336 l 1104 336 l 1104 0 l 1346 0 l 1346 977 z "},"i":{"ha":410,"x_min":0,"x_max":0,"o":"m 325 0 l 325 977 l 83 977 l 83 0 z "},"ì":{"ha":410,"x_min":0,"x_max":0,"o":"m 325 0 l 325 977 l 83 977 l 83 0 z "},"í":{"ha":410,"x_min":0,"x_max":0,"o":"m 325 0 l 325 977 l 83 977 l 83 0 z "},"î":{"ha":410,"x_min":0,"x_max":0,"o":"m 325 0 l 325 977 l 83 977 l 83 0 z "},"ï":{"ha":410,"x_min":0,"x_max":0,"o":"m 325 0 l 325 977 l 83 977 l 83 0 z "},"j":{"ha":707,"x_min":0,"x_max":0,"o":"m 398 975 l 398 406 b 235 242 398 316 325 242 l 15 242 l 15 0 l 235 0 b 640 406 458 0 640 182 l 640 975 z "},"k":{"ha":1349,"x_min":0,"x_max":0,"o":"m 904 499 l 1343 977 l 1014 977 l 340 242 l 324 242 l 324 977 l 83 977 l 83 0 l 447 0 l 739 320 l 1022 0 l 1346 0 z "},"l":{"ha":907,"x_min":0,"x_max":0,"o":"m 325 242 l 325 977 l 83 977 l 83 0 l 891 0 l 891 242 z "},"m":{"ha":1851,"x_min":0,"x_max":0,"o":"m 1497 981 l 925 180 l 354 981 l 83 981 l 83 -3 l 325 -3 l 325 604 l 753 4 l 1096 4 l 1525 604 l 1525 -3 l 1767 -3 l 1767 981 z "},"n":{"ha":1431,"x_min":0,"x_max":0,"o":"m 1347 2 l 1347 977 l 1105 977 l 1105 234 l 328 977 l 83 977 l 83 0 l 325 0 l 325 644 l 999 0 l 1349 0 z "},"ñ":{"ha":1431,"x_min":0,"x_max":0,"o":"m 1347 2 l 1347 977 l 1105 977 l 1105 234 l 328 977 l 83 977 l 83 0 l 325 0 l 325 644 l 999 0 l 1349 0 z "},"o":{"ha":1388,"x_min":0,"x_max":0,"o":"m 1008 975 l 380 975 b 61 656 204 975 61 832 l 61 319 b 380 0 61 143 204 0 l 1008 0 b 1326 319 1183 0 1326 143 l 1326 656 b 1008 975 1326 832 1183 975 z m 1084 319 b 1008 242 1084 276 1050 242 l 380 242 b 303 319 337 242 303 276 l 303 656 b 380 733 303 699 337 733 l 1008 733 b 1084 656 1050 733 1084 699 z "},"ò":{"ha":1388,"x_min":0,"x_max":0,"o":"m 1008 975 l 380 975 b 61 656 204 975 61 832 l 61 319 b 380 0 61 143 204 0 l 1008 0 b 1326 319 1183 0 1326 143 l 1326 656 b 1008 975 1326 832 1183 975 z m 1084 319 b 1008 242 1084 276 1050 242 l 380 242 b 303 319 337 242 303 276 l 303 656 b 380 733 303 699 337 733 l 1008 733 b 1084 656 1050 733 1084 699 z "},"ó":{"ha":1388,"x_min":0,"x_max":0,"o":"m 1008 975 l 380 975 b 61 656 204 975 61 832 l 61 319 b 380 0 61 143 204 0 l 1008 0 b 1326 319 1183 0 1326 143 l 1326 656 b 1008 975 1326 832 1183 975 z m 1084 319 b 1008 242 1084 276 1050 242 l 380 242 b 303 319 337 242 303 276 l 303 656 b 380 733 303 699 337 733 l 1008 733 b 1084 656 1050 733 1084 699 z "},"ô":{"ha":1388,"x_min":0,"x_max":0,"o":"m 1008 975 l 380 975 b 61 656 204 975 61 832 l 61 319 b 380 0 61 143 204 0 l 1008 0 b 1326 319 1183 0 1326 143 l 1326 656 b 1008 975 1326 832 1183 975 z m 1084 319 b 1008 242 1084 276 1050 242 l 380 242 b 303 319 337 242 303 276 l 303 656 b 380 733 303 699 337 733 l 1008 733 b 1084 656 1050 733 1084 699 z "},"õ":{"ha":1388,"x_min":0,"x_max":0,"o":"m 1008 975 l 380 975 b 61 656 204 975 61 832 l 61 319 b 380 0 61 143 204 0 l 1008 0 b 1326 319 1183 0 1326 143 l 1326 656 b 1008 975 1326 832 1183 975 z m 1084 319 b 1008 242 1084 276 1050 242 l 380 242 b 303 319 337 242 303 276 l 303 656 b 380 733 303 699 337 733 l 1008 733 b 1084 656 1050 733 1084 699 z "},"ö":{"ha":1388,"x_min":0,"x_max":0,"o":"m 1008 975 l 380 975 b 61 656 204 975 61 832 l 61 319 b 380 0 61 143 204 0 l 1008 0 b 1326 319 1183 0 1326 143 l 1326 656 b 1008 975 1326 832 1183 975 z m 1084 319 b 1008 242 1084 276 1050 242 l 380 242 b 303 319 337 242 303 276 l 303 656 b 380 733 303 699 337 733 l 1008 733 b 1084 656 1050 733 1084 699 z "},"ø":{"ha":1388,"x_min":0,"x_max":0,"o":"m 1008 975 l 380 975 b 61 656 204 975 61 832 l 61 319 b 380 0 61 143 204 0 l 1008 0 b 1326 319 1183 0 1326 143 l 1326 656 b 1008 975 1326 832 1183 975 z m 1084 319 b 1008 242 1084 276 1050 242 l 380 242 b 303 319 337 242 303 276 l 303 656 b 380 733 303 699 337 733 l 1008 733 b 1084 656 1050 733 1084 699 z "},"p":{"ha":1371,"x_min":0,"x_max":0,"o":"m 1039 976 l 82 975 l 82 0 l 324 0 l 324 368 l 1040 369 b 1343 673 1207 369 1343 505 b 1039 976 1343 840 1207 976 z m 1039 611 l 324 610 l 324 733 l 1040 734 b 1101 673 1074 734 1101 707 b 1039 611 1101 639 1074 611 z "},"q":{"ha":1379,"x_min":0,"x_max":0,"o":"m 375 975 b 57 656 200 975 57 832 l 57 366 b 375 48 57 190 200 48 l 756 48 l 783 0 l 1062 0 l 1034 49 b 1322 366 1196 64 1322 201 l 1322 656 b 1004 975 1322 832 1179 975 z m 1004 290 l 897 290 l 805 450 l 526 450 l 618 290 l 375 290 b 299 366 333 290 299 324 l 299 656 b 375 733 299 699 333 733 l 1004 733 b 1080 656 1046 733 1080 699 l 1080 366 b 1004 290 1080 324 1046 290 z "},"r":{"ha":1386,"x_min":0,"x_max":0,"o":"m 1343 673 b 1039 976 1343 840 1207 976 l 82 975 l 82 0 l 324 0 l 324 368 l 854 369 l 1064 0 l 1343 0 l 1126 381 b 1343 673 1251 418 1343 535 z m 1040 734 b 1101 673 1074 734 1101 707 b 1039 611 1101 639 1074 611 l 324 610 l 324 733 z "},"s":{"ha":1378,"x_min":0,"x_max":0,"o":"m 1019 602 l 360 602 b 300 661 327 602 300 628 b 372 732 300 700 332 732 l 1320 732 l 1320 974 l 372 974 b 58 661 199 974 58 834 b 360 360 58 495 193 360 l 1019 360 b 1079 301 1052 360 1079 333 b 1019 241 1079 268 1052 241 l 59 241 l 59 -1 l 1019 -1 b 1321 301 1185 -1 1321 135 b 1019 602 1321 467 1185 602 z "},"t":{"ha":1292,"x_min":0,"x_max":0,"o":"m 1276 974 l 15 974 l 15 732 l 524 732 l 524 0 l 766 0 l 766 732 l 1276 732 z "},"u":{"ha":1414,"x_min":0,"x_max":0,"o":"m 1100 976 l 1100 328 b 1013 241 1100 280 1061 241 l 400 241 b 313 328 352 241 313 280 l 313 976 l 71 976 l 71 328 b 400 -1 71 147 218 -1 l 1013 -1 b 1342 328 1194 -1 1342 147 l 1342 976 z "},"ù":{"ha":1414,"x_min":0,"x_max":0,"o":"m 1100 976 l 1100 328 b 1013 241 1100 280 1061 241 l 400 241 b 313 328 352 241 313 280 l 313 976 l 71 976 l 71 328 b 400 -1 71 147 218 -1 l 1013 -1 b 1342 328 1194 -1 1342 147 l 1342 976 z "},"ú":{"ha":1414,"x_min":0,"x_max":0,"o":"m 1100 976 l 1100 328 b 1013 241 1100 280 1061 241 l 400 241 b 313 328 352 241 313 280 l 313 976 l 71 976 l 71 328 b 400 -1 71 147 218 -1 l 1013 -1 b 1342 328 1194 -1 1342 147 l 1342 976 z "},"û":{"ha":1414,"x_min":0,"x_max":0,"o":"m 1100 976 l 1100 328 b 1013 241 1100 280 1061 241 l 400 241 b 313 328 352 241 313 280 l 313 976 l 71 976 l 71 328 b 400 -1 71 147 218 -1 l 1013 -1 b 1342 328 1194 -1 1342 147 l 1342 976 z "},"ü":{"ha":1414,"x_min":0,"x_max":0,"o":"m 1100 976 l 1100 328 b 1013 241 1100 280 1061 241 l 400 241 b 313 328 352 241 313 280 l 313 976 l 71 976 l 71 328 b 400 -1 71 147 218 -1 l 1013 -1 b 1342 328 1194 -1 1342 147 l 1342 976 z "},"v":{"ha":1400,"x_min":0,"x_max":0,"o":"m 1124 975 l 707 241 l 278 975 l -3 975 l 569 -1 l 848 -1 l 1402 975 z "},"w":{"ha":1939,"x_min":0,"x_max":0,"o":"m 1663 977 l 1247 242 l 1114 470 l 1400 977 l 1122 977 l 972 712 l 817 977 l 537 977 l 834 469 l 706 242 l 276 977 l -4 977 l 568 0 l 847 0 l 976 227 l 1109 0 l 1388 0 l 1941 977 z "},"x":{"ha":1294,"x_min":0,"x_max":0,"o":"m 1294 976 l 961 976 l 647 645 l 333 976 l 0 976 l 481 469 l 36 -1 l 369 -1 l 647 293 l 925 -1 l 1259 -1 l 814 469 z "},"y":{"ha":1275,"x_min":0,"x_max":0,"o":"m 1285 976 l 951 976 l 637 645 l 324 976 l -10 976 l 516 424 l 516 424 l 516 0 l 758 0 l 758 424 l 759 424 z "},"ý":{"ha":1275,"x_min":0,"x_max":0,"o":"m 1285 976 l 951 976 l 637 645 l 324 976 l -10 976 l 516 424 l 516 424 l 516 0 l 758 0 l 758 424 l 759 424 z "},"ÿ":{"ha":1275,"x_min":0,"x_max":0,"o":"m 1285 976 l 951 976 l 637 645 l 324 976 l -10 976 l 516 424 l 516 424 l 516 0 l 758 0 l 758 424 l 759 424 z "},"z":{"ha":1222,"x_min":0,"x_max":0,"o":"m 1170 974 l 803 974 l 803 975 l 53 975 l 53 733 l 750 733 l 53 257 l 53 0 l 106 0 l 106 0 l 1170 0 l 1170 242 l 460 242 l 1170 728 z "}," ":{"ha":694,"x_min":0,"x_max":0,"o":""},"­":{"ha":0,"x_min":0,"x_max":0,"o":""},"":{"ha":2096,"x_min":0,"x_max":0,"o":"m 2057 487 b 1569 975 2057 756 1838 975 l 526 975 b 39 487 258 975 39 756 b 526 0 39 219 258 0 l 1569 0 b 2057 487 1838 0 2057 219 z m 1569 733 b 1815 487 1705 733 1815 623 b 1569 242 1815 352 1705 242 l 526 242 b 281 487 391 242 281 352 b 526 733 281 623 391 733 z "},"":{"ha":2169,"x_min":0,"x_max":0,"o":"m 1763 981 l 407 981 b 71 645 221 981 71 830 l 71 6 l 313 6 l 313 249 l 1856 249 l 1856 6 l 2098 6 l 2098 645 b 1763 981 2098 830 1948 981 z m 313 491 l 313 645 b 407 739 313 697 355 739 l 1763 739 b 1856 645 1814 739 1856 697 l 1856 491 z "},"":{"ha":2135,"x_min":0,"x_max":0,"o":"m 1607 977 l 82 977 l 82 1 l 1607 1 b 2095 489 1876 1 2095 220 b 1607 977 2095 758 1876 977 z m 1607 243 l 324 243 l 324 735 l 1607 735 b 1853 489 1743 735 1853 625 b 1607 243 1853 353 1743 243 z "},"":{"ha":2124,"x_min":0,"x_max":0,"o":"m 1793 982 l 82 980 l 82 6 l 324 6 l 324 373 l 1793 374 b 2097 678 1961 374 2097 511 b 1793 982 2097 846 1961 982 z m 1793 616 l 324 615 l 324 739 l 1793 740 b 1855 678 1827 740 1855 712 b 1793 616 1855 644 1827 616 z "},"":{"ha":2138,"x_min":0,"x_max":0,"o":"m 2097 672 b 1793 976 2097 840 1961 976 l 82 975 l 82 0 l 324 0 l 324 367 l 1593 368 l 1803 0 l 2082 0 l 1866 378 b 2097 672 1999 411 2097 530 z m 324 733 l 1793 734 b 1855 672 1827 734 1855 706 b 1793 611 1855 638 1827 611 l 324 609 z "},"":{"ha":2154,"x_min":0,"x_max":0,"o":"m 2095 673 b 1792 977 2095 841 1959 977 l 82 975 l 82 0 l 324 0 l 324 0 l 1790 2 b 2095 307 1958 2 2095 138 b 2034 490 2095 375 2072 439 b 2095 673 2072 541 2095 604 z m 1792 735 b 1853 673 1826 735 1853 707 b 1792 611 1853 639 1826 611 b 1790 611 1792 611 1790 611 l 324 610 l 324 734 z m 1790 244 l 324 242 l 324 368 l 1790 369 b 1853 307 1825 369 1853 341 b 1790 244 1853 272 1825 244 z "},"":{"ha":1986,"x_min":0,"x_max":0,"o":"m 1937 242 l 527 242 b 281 488 391 242 281 352 b 527 734 281 624 391 734 l 1937 734 l 1937 976 l 527 976 b 39 488 258 976 39 757 b 527 0 39 219 258 0 l 1937 0 z "},"":{"ha":1429,"x_min":0,"x_max":0,"o":"m 571 976 b 83 488 302 976 83 757 b 571 0 83 219 302 0 l 1345 0 l 1345 242 l 571 242 b 325 488 436 242 325 352 b 571 734 325 624 436 734 l 1345 734 l 1345 976 z m 566 488 b 687 367 566 421 621 367 l 1345 367 l 1345 609 l 687 609 b 566 488 621 609 566 555 z "},"":{"ha":1428,"x_min":0,"x_max":0,"o":"m 565 488 b 686 367 565 421 620 367 l 1344 367 l 1344 609 l 686 609 b 565 488 620 609 565 555 z m 577 975 b 83 481 305 975 83 753 l 83 0 l 325 0 l 325 481 b 577 733 325 620 438 733 l 1344 733 l 1344 975 z "},"":{"ha":1429,"x_min":0,"x_max":0,"o":"m 342 976 b 83 718 199 976 83 860 l 83 258 b 342 0 83 116 199 0 l 1345 0 l 1345 242 l 342 242 b 325 258 333 242 325 249 l 325 718 b 342 734 325 727 333 734 l 1345 734 l 1345 976 z m 566 488 b 687 367 566 421 621 367 l 1345 367 l 1345 609 l 687 609 b 566 488 621 609 566 555 z "},"":{"ha":1428,"x_min":0,"x_max":0,"o":"m 565 488 b 686 367 565 421 620 367 l 1344 367 l 1344 609 l 686 609 b 565 488 620 609 565 555 z m 342 975 b 83 716 199 975 83 859 l 83 0 l 325 0 l 325 716 b 342 733 325 725 333 733 l 1344 733 l 1344 975 z "}}}
